<svg width="140" height="95" viewBox="0 0 140 95" fill="none" xmlns="http://www.w3.org/2000/svg">
<g filter="url(#filter0_d_1626_3183)">
<g filter="url(#filter1_d_1626_3183)">
<path d="M23.5448 34.9997L17.7276 14.5931L37 23.813L28.1816 26.9375L23.5448 34.9997Z" fill="#F83C85"/>
<path d="M17.9457 14.1451L37.2178 23.3648L38.2985 23.8823L37.1697 24.2811L28.5259 27.3441L23.9812 35.2461L23.3881 36.2789L23.0614 35.1346L17.2443 14.7282L16.9412 13.6646L17.9457 14.1451Z" stroke="#F5FAFF"/>
</g>
<rect x="38" y="36" width="85" height="38" rx="7" fill="#F83C85"/>
<rect x="38" y="36" width="85" height="38" rx="7" stroke="#DD2590" stroke-width="2"/>
<path d="M54.2784 49.3636H56.4091L60.1136 58.4091H60.25L63.9545 49.3636H66.0852V61H64.4148V52.5795H64.3068L60.875 60.983H59.4886L56.0568 52.5739H55.9489V61H54.2784V49.3636ZM72.2628 61.1761C71.4029 61.1761 70.6624 60.9924 70.0412 60.625C69.4238 60.2538 68.9465 59.733 68.6094 59.0625C68.276 58.3883 68.1094 57.5985 68.1094 56.6932C68.1094 55.7992 68.276 55.0114 68.6094 54.3295C68.9465 53.6477 69.4162 53.1155 70.0185 52.733C70.6245 52.3504 71.3329 52.1591 72.1435 52.1591C72.6359 52.1591 73.1132 52.2405 73.5753 52.4034C74.0374 52.5663 74.4522 52.822 74.8196 53.1705C75.187 53.5189 75.4768 53.9716 75.6889 54.5284C75.901 55.0814 76.0071 55.7538 76.0071 56.5455V57.1477H69.0696V55.875H74.3423C74.3423 55.428 74.2514 55.0322 74.0696 54.6875C73.8878 54.339 73.6321 54.0644 73.3026 53.8636C72.9768 53.6629 72.5942 53.5625 72.1548 53.5625C71.6776 53.5625 71.2609 53.6799 70.9048 53.9148C70.5526 54.1458 70.2798 54.4489 70.0866 54.8239C69.8973 55.1951 69.8026 55.5985 69.8026 56.0341V57.0284C69.8026 57.6117 69.9048 58.108 70.1094 58.517C70.3177 58.9261 70.6075 59.2386 70.9787 59.4545C71.3499 59.6667 71.7836 59.7727 72.2798 59.7727C72.6018 59.7727 72.8954 59.7273 73.1605 59.6364C73.4257 59.5417 73.6548 59.4015 73.848 59.2159C74.0412 59.0303 74.1889 58.8011 74.2912 58.5284L75.8991 58.8182C75.7704 59.2917 75.5393 59.7064 75.206 60.0625C74.8764 60.4148 74.4616 60.6894 73.9616 60.8864C73.4654 61.0795 72.8991 61.1761 72.2628 61.1761ZM79.5909 55.8182V61H77.892V52.2727H79.5227V53.6932H79.6307C79.8314 53.2311 80.1458 52.8598 80.5739 52.5795C81.0057 52.2992 81.5492 52.1591 82.2045 52.1591C82.7992 52.1591 83.3201 52.2841 83.767 52.5341C84.214 52.7803 84.5606 53.1477 84.8068 53.6364C85.053 54.125 85.1761 54.7292 85.1761 55.4489V61H83.4773V55.6534C83.4773 55.0208 83.3125 54.5265 82.983 54.1705C82.6534 53.8106 82.2008 53.6307 81.625 53.6307C81.2311 53.6307 80.8807 53.7159 80.5739 53.8864C80.2708 54.0568 80.0303 54.3068 79.8523 54.6364C79.678 54.9621 79.5909 55.3561 79.5909 55.8182ZM91.5284 52.2727V53.6364H86.7614V52.2727H91.5284ZM88.0398 50.1818H89.7386V58.4375C89.7386 58.767 89.7879 59.0152 89.8864 59.1818C89.9848 59.3447 90.1117 59.4564 90.267 59.517C90.4261 59.5739 90.5985 59.6023 90.7841 59.6023C90.9205 59.6023 91.0398 59.5928 91.142 59.5739C91.2443 59.5549 91.3239 59.5398 91.3807 59.5284L91.6875 60.9318C91.589 60.9697 91.4489 61.0076 91.267 61.0455C91.0852 61.0871 90.858 61.1098 90.5852 61.1136C90.1383 61.1212 89.7216 61.0417 89.3352 60.875C88.9489 60.7083 88.6364 60.4508 88.3977 60.1023C88.1591 59.7538 88.0398 59.3163 88.0398 58.7898V50.1818ZM96.9901 61.1761C96.1719 61.1761 95.4579 60.9886 94.848 60.6136C94.2382 60.2386 93.7647 59.714 93.4276 59.0398C93.0904 58.3655 92.9219 57.5777 92.9219 56.6761C92.9219 55.7708 93.0904 54.9792 93.4276 54.3011C93.7647 53.6231 94.2382 53.0966 94.848 52.7216C95.4579 52.3466 96.1719 52.1591 96.9901 52.1591C97.8082 52.1591 98.5223 52.3466 99.1321 52.7216C99.742 53.0966 100.215 53.6231 100.553 54.3011C100.89 54.9792 101.058 55.7708 101.058 56.6761C101.058 57.5777 100.89 58.3655 100.553 59.0398C100.215 59.714 99.742 60.2386 99.1321 60.6136C98.5223 60.9886 97.8082 61.1761 96.9901 61.1761ZM96.9957 59.75C97.526 59.75 97.9654 59.6098 98.3139 59.3295C98.6624 59.0492 98.92 58.6761 99.0866 58.2102C99.2571 57.7443 99.3423 57.2311 99.3423 56.6705C99.3423 56.1136 99.2571 55.6023 99.0866 55.1364C98.92 54.6667 98.6624 54.2898 98.3139 54.0057C97.9654 53.7216 97.526 53.5795 96.9957 53.5795C96.4616 53.5795 96.0185 53.7216 95.6662 54.0057C95.3177 54.2898 95.0582 54.6667 94.8878 55.1364C94.7211 55.6023 94.6378 56.1136 94.6378 56.6705C94.6378 57.2311 94.7211 57.7443 94.8878 58.2102C95.0582 58.6761 95.3177 59.0492 95.6662 59.3295C96.0185 59.6098 96.4616 59.75 96.9957 59.75ZM102.955 61V52.2727H104.597V53.6591H104.688C104.847 53.1894 105.127 52.8201 105.528 52.5511C105.934 52.2784 106.392 52.142 106.903 52.142C107.009 52.142 107.134 52.1458 107.278 52.1534C107.426 52.161 107.542 52.1705 107.625 52.1818V53.8068C107.557 53.7879 107.436 53.767 107.261 53.7443C107.087 53.7178 106.913 53.7045 106.739 53.7045C106.337 53.7045 105.979 53.7898 105.665 53.9602C105.354 54.1269 105.108 54.3598 104.926 54.6591C104.744 54.9545 104.653 55.2917 104.653 55.6705V61H102.955Z" fill="white"/>
</g>
<defs>
<filter id="filter0_d_1626_3183" x="0.155273" y="0.736328" width="139.845" height="94.2637" filterUnits="userSpaceOnUse" color-interpolation-filters="sRGB">
<feFlood flood-opacity="0" result="BackgroundImageFix"/>
<feColorMatrix in="SourceAlpha" type="matrix" values="0 0 0 0 0 0 0 0 0 0 0 0 0 0 0 0 0 0 127 0" result="hardAlpha"/>
<feOffset dy="4"/>
<feGaussianBlur stdDeviation="8"/>
<feComposite in2="hardAlpha" operator="out"/>
<feColorMatrix type="matrix" values="0 0 0 0 0.054902 0 0 0 0 0.054902 0 0 0 0 0.054902 0 0 0 0.08 0"/>
<feBlend mode="normal" in2="BackgroundImageFix" result="effect1_dropShadow_1626_3183"/>
<feBlend mode="normal" in="SourceGraphic" in2="effect1_dropShadow_1626_3183" result="shape"/>
</filter>
<filter id="filter1_d_1626_3183" x="14.1553" y="11.7363" width="27.4414" height="28.8213" filterUnits="userSpaceOnUse" color-interpolation-filters="sRGB">
<feFlood flood-opacity="0" result="BackgroundImageFix"/>
<feColorMatrix in="SourceAlpha" type="matrix" values="0 0 0 0 0 0 0 0 0 0 0 0 0 0 0 0 0 0 127 0" result="hardAlpha"/>
<feOffset dy="1"/>
<feGaussianBlur stdDeviation="1"/>
<feComposite in2="hardAlpha" operator="out"/>
<feColorMatrix type="matrix" values="0 0 0 0 0 0 0 0 0 0 0 0 0 0 0 0 0 0 0.08 0"/>
<feBlend mode="normal" in2="BackgroundImageFix" result="effect1_dropShadow_1626_3183"/>
<feBlend mode="normal" in="SourceGraphic" in2="effect1_dropShadow_1626_3183" result="shape"/>
</filter>
</defs>
</svg>
