<svg width="95" height="130" viewBox="0 0 95 130" fill="none" xmlns="http://www.w3.org/2000/svg">
<path fill-rule="evenodd" clip-rule="evenodd" d="M29.2213 56.8067C26.0917 55.0996 22.4738 54.5863 18.4125 55.7745C5.84913 59.4509 0.766821 69.2891 0.0806333 80.9515C-0.920754 97.9806 7.59242 118.937 15.2018 129.353C15.5617 129.847 16.2535 129.953 16.7445 129.593C17.2382 129.233 17.3469 128.541 16.987 128.047C9.60075 117.939 1.31637 97.6069 2.28708 81.0798C2.91748 70.3714 7.49486 61.2724 19.0345 57.8973C22.4682 56.8903 25.5198 57.3338 28.1697 58.7703C27.2576 60.5165 26.4068 62.2654 25.6202 64.0144C23.4501 68.8428 20.2061 82.2485 21.4167 92.1062C22.2869 99.1773 25.4417 104.419 32.3371 104.234C36.1697 104.131 38.9422 101.744 40.6382 97.9444C42.9729 92.7227 43.2351 84.7227 41.5921 77.0575C40.2253 70.6754 37.5476 64.536 33.7485 60.4161C32.9117 59.5123 32.0246 58.7006 31.0846 58.0032C44.1946 34.0257 68.5488 11.6047 93.5584 2.14871C94.1274 1.93114 94.4174 1.2952 94.1999 0.723375C93.9851 0.151552 93.3463 -0.13577 92.7772 0.079012C67.3604 9.69121 42.602 32.4386 29.2213 56.8067ZM30.0274 59.9865C29.1738 61.6295 28.3761 63.2752 27.6369 64.9209C25.5588 69.5485 22.4514 82.3908 23.6118 91.8356C24.3231 97.632 26.6272 102.176 32.2785 102.025C35.2464 101.944 37.3049 99.9835 38.6215 97.0435C40.0664 93.8078 40.6187 89.4256 40.3872 84.7534C40.0357 77.66 37.8684 69.9 34.0972 64.4077C32.9033 62.6671 31.5448 61.1581 30.0274 59.9865Z" fill="black"/>
<path fill-rule="evenodd" clip-rule="evenodd" d="M73.7962 38.3326C76.0221 25.3341 84.5185 11.4931 93.6761 1.90883C94.0973 1.46811 94.0806 0.767947 93.6398 0.346751C93.1991 -0.0744453 92.499 -0.0604657 92.0778 0.380256C82.6329 10.263 73.9133 24.5586 71.6176 37.9588C71.5144 38.5585 71.919 39.1303 72.5215 39.2335C73.1212 39.3367 73.693 38.9323 73.7962 38.3326Z" fill="black"/>
<path fill-rule="evenodd" clip-rule="evenodd" d="M91.9353 0.146652C82.4012 5.59152 67.7765 6.34468 57.1155 3.58598C56.5241 3.43256 55.9188 3.78684 55.7682 4.37819C55.6148 4.96954 55.969 5.572 56.5603 5.72541C67.729 8.61521 83.0427 7.77006 93.0315 2.06578C93.5615 1.76453 93.7457 1.08667 93.4444 0.556683C93.1404 0.0267009 92.4653 -0.15739 91.9353 0.146652Z" fill="black"/>
</svg>
