<svg width="227" height="227" viewBox="0 0 227 227" fill="none" xmlns="http://www.w3.org/2000/svg">
<path fill-rule="evenodd" clip-rule="evenodd" d="M227 38.182C227 57.1114 213.225 72.8231 195.152 75.841C213.225 78.859 227 94.5711 227 113.5C227 132.429 213.225 148.141 195.152 151.159C213.225 154.177 227 169.889 227 188.818C227 209.905 209.905 227 188.818 227C169.889 227 154.177 213.225 151.159 195.152C148.141 213.225 132.429 227 113.5 227C94.5711 227 78.859 213.225 75.841 195.152C72.8231 213.225 57.1114 227 38.182 227C17.0947 227 0 209.905 0 188.818C0 169.889 13.7749 154.177 31.8475 151.159C13.7749 148.141 0 132.429 0 113.5C0 94.5711 13.7749 78.859 31.8475 75.841C13.7749 72.8231 0 57.1114 0 38.182C0 17.0947 17.0947 0 38.182 0C57.1114 0 72.8231 13.7749 75.841 31.8475C78.859 13.7749 94.5711 0 113.5 0C132.429 0 148.141 13.7749 151.159 31.8475C154.177 13.7749 169.889 0 188.818 0C209.905 0 227 17.0947 227 38.182ZM75.841 44.5166C73.1672 60.5289 60.5289 73.1672 44.5166 75.841C60.5289 78.5148 73.1672 91.1536 75.841 107.166C78.5148 91.1536 91.1536 78.5148 107.166 75.841C91.1536 73.1672 78.5148 60.5289 75.841 44.5166ZM119.834 75.841C135.846 73.1672 148.485 60.5289 151.159 44.5166C153.833 60.5289 166.472 73.1672 182.484 75.841C166.472 78.5148 153.833 91.1536 151.159 107.166C148.485 91.1536 135.846 78.5148 119.834 75.841ZM151.159 182.484C153.833 166.472 166.472 153.833 182.484 151.159C166.472 148.485 153.833 135.846 151.159 119.834C148.485 135.846 135.846 148.485 119.834 151.159C135.846 153.833 148.485 166.472 151.159 182.484ZM75.841 119.834C78.5148 135.846 91.1536 148.485 107.166 151.159C91.1536 153.833 78.5148 166.472 75.841 182.484C73.1672 166.472 60.5289 153.833 44.5166 151.159C60.5289 148.485 73.1672 135.846 75.841 119.834Z" fill="#F2F2FA"/>
</svg>
