<svg width="85" height="85" viewBox="0 0 85 85" fill="none" xmlns="http://www.w3.org/2000/svg">
<path d="M0 2C0 0.895431 0.89543 0 2 0H39.36C40.2657 0 41 0.734253 41 1.64C41 23.3779 23.3779 41 1.64 41C0.734251 41 0 40.2657 0 39.36V2Z" fill="#7858FF"/>
<path d="M44 2C44 0.895431 44.8954 0 46 0H83.36C84.2657 0 85 0.734253 85 1.64C85 23.3779 67.3779 41 45.64 41C44.7343 41 44 40.2657 44 39.36V2Z" fill="#7858FF"/>
<path d="M0 46C0 44.8954 0.89543 44 2 44H39.36C40.2657 44 41 44.7343 41 45.64C41 67.3779 23.3779 85 1.64 85C0.734251 85 0 84.2657 0 83.36V46Z" fill="#7858FF"/>
<path d="M44 46C44 44.8954 44.8954 44 46 44H83.36C84.2657 44 85 44.7343 85 45.64C85 67.3779 67.3779 85 45.64 85C44.7343 85 44 84.2657 44 83.36V46Z" fill="#7858FF"/>
</svg>
