<svg width="32" height="32" viewBox="0 0 32 32" fill="none" xmlns="http://www.w3.org/2000/svg">
<path fill-rule="evenodd" clip-rule="evenodd" d="M8.00389 19.9847C9.04846 20.017 10.0448 20.434 10.8008 21.1556C10.8061 21.1607 10.8111 21.166 10.8164 21.1713C12.4009 22.7357 12.3809 25.2465 11.0195 26.8588C10.4293 27.5607 9.61666 28.0765 8.83494 28.4584C8.03736 28.848 7.17642 29.1434 6.4033 29.3646C5.62598 29.587 4.90919 29.7422 4.38768 29.8412C4.12605 29.8909 3.91112 29.9266 3.75975 29.9506C3.68422 29.9625 3.62425 29.9718 3.58201 29.9779C3.56113 29.9809 3.5442 29.983 3.53221 29.9847C3.52636 29.9855 3.52117 29.9862 3.51756 29.9867L3.51072 29.9877C3.09892 30.0427 2.68438 29.9025 2.39061 29.6088C2.09707 29.315 1.9568 28.9013 2.0117 28.4896V28.4867L2.01268 28.4828C2.01316 28.4792 2.01381 28.474 2.01463 28.4681C2.01629 28.4562 2.01842 28.4394 2.02147 28.4183C2.02761 28.3761 2.0368 28.3153 2.04881 28.2396C2.07279 28.0884 2.10955 27.8739 2.15916 27.6127C2.25819 27.0911 2.41239 26.3735 2.63475 25.5961C2.85587 24.8231 3.15247 23.9629 3.54197 23.1654C3.92391 22.3835 4.43931 21.5701 5.14158 20.9798C5.94051 20.3069 6.95979 19.9524 8.00389 19.9847ZM7.92186 22.6498C7.53435 22.6378 7.15586 22.7692 6.85936 23.0189L6.8574 23.0209C6.56025 23.2705 6.2428 23.7103 5.93748 24.3353C5.63961 24.9451 5.39373 25.6459 5.19822 26.3295C5.13524 26.5496 5.07858 26.7655 5.02733 26.972C5.23397 26.9207 5.44964 26.8642 5.6699 26.8011C6.35335 26.6057 7.05419 26.3598 7.66405 26.0619C8.28923 25.7565 8.72982 25.4392 8.97948 25.142L8.98143 25.139C9.50936 24.5144 9.46525 23.5931 8.95115 23.0765C8.67169 22.8136 8.30559 22.6617 7.92186 22.6498Z" fill="url(#paint0_linear_1498_2419)"/>
<path fill-rule="evenodd" clip-rule="evenodd" d="M29.3418 1.33336C30.0749 1.33802 30.667 1.93331 30.667 2.66637C30.667 6.41357 29.6139 12.9418 22.8613 17.8871C22.975 18.364 23.1059 18.9917 23.1953 19.6859C23.2928 20.4424 23.3483 21.3134 23.2685 22.1703C23.19 23.0156 22.9713 23.9463 22.4424 24.7396L22.4414 24.7416C21.5361 26.0945 19.8292 26.8794 18.6367 27.3119C17.996 27.5444 17.4036 27.709 16.9726 27.8158C16.7562 27.8695 16.5777 27.9092 16.4512 27.9359C16.3881 27.9493 16.3378 27.9592 16.3017 27.9662C16.2837 27.9698 16.2685 27.973 16.2578 27.975C16.2528 27.976 16.2483 27.9763 16.2451 27.9769L16.2412 27.9779H16.2383C15.8494 28.0485 15.4489 27.9431 15.1455 27.6898C14.8422 27.4365 14.667 27.0617 14.667 26.6664V20.5521L11.4482 17.3334H5.33299C4.93784 17.3333 4.56281 17.1572 4.30955 16.8539C4.05654 16.5506 3.95106 16.1507 4.02147 15.7621L4.02244 15.7591V15.7543C4.02307 15.751 4.0244 15.7468 4.02537 15.7416C4.02736 15.7309 4.02969 15.7165 4.03319 15.6986C4.04023 15.6626 4.05109 15.6115 4.06444 15.5482C4.0911 15.4218 4.13001 15.2437 4.18358 15.0277C4.29045 14.5968 4.45601 14.0044 4.68846 13.3636C5.12107 12.171 5.90555 10.4632 7.25877 9.55797L7.26073 9.557C8.05387 9.02831 8.98386 8.80942 9.82908 8.73082C10.6859 8.6512 11.557 8.7066 12.3135 8.80407C13.0145 8.89443 13.6482 9.02645 14.1269 9.14098C15.7415 6.86221 17.8535 4.97371 20.3086 3.6234C23.075 2.10198 26.1847 1.31379 29.3418 1.33336ZM20.4521 19.3998C19.4411 19.9579 18.4002 20.4601 17.333 20.9027V24.9408C17.4611 24.8989 17.5937 24.8536 17.7275 24.805C18.8774 24.3879 19.8361 23.8388 20.2246 23.2591C20.4153 22.9723 20.5569 22.5295 20.6133 21.9232C20.6686 21.3277 20.6333 20.6669 20.5508 20.0267C20.5228 19.8098 20.4874 19.5997 20.4521 19.3998ZM27.9453 4.05114C25.7222 4.23159 23.5563 4.88043 21.5928 5.96032C19.2252 7.26262 17.2297 9.14881 15.7969 11.4398C15.7943 11.4438 15.7926 11.4485 15.79 11.4525C14.9296 12.7963 14.1854 14.2105 13.5664 15.68L16.3222 18.4369C17.8096 17.8193 19.2429 17.0765 20.6055 16.2162C26.2391 12.4319 27.6729 7.48323 27.9453 4.05114ZM8.63182 11.8548C8.09243 12.2846 7.58632 13.1948 7.1953 14.2728C7.14678 14.4065 7.10141 14.5382 7.05955 14.6664H11.1015C11.4969 13.7259 11.938 12.8056 12.4248 11.9095L8.63182 11.8548ZM11.9726 11.4486C11.3326 11.3661 10.6716 11.3307 10.0762 11.3861C9.46978 11.4425 9.0269 11.584 8.74022 11.7748L12.4404 11.8822C12.5009 11.7711 12.5621 11.6605 12.624 11.5502C12.417 11.5133 12.1982 11.4777 11.9726 11.4486Z" fill="url(#paint1_linear_1498_2419)"/>
<defs>
<linearGradient id="paint0_linear_1498_2419" x1="2" y1="15.6662" x2="30.667" y2="15.6662" gradientUnits="userSpaceOnUse">
<stop stop-color="#F76702"/>
<stop offset="0.5" stop-color="#E81A60"/>
<stop offset="1" stop-color="#7859FF"/>
</linearGradient>
<linearGradient id="paint1_linear_1498_2419" x1="2" y1="15.6662" x2="30.667" y2="15.6662" gradientUnits="userSpaceOnUse">
<stop stop-color="#F76702"/>
<stop offset="0.5" stop-color="#E81A60"/>
<stop offset="1" stop-color="#7859FF"/>
</linearGradient>
</defs>
</svg>
