<svg xmlns="http://www.w3.org/2000/svg" width="44" height="44" fill="none" viewBox="0 0 44 44">
  <path fill="#0E0E0E" fill-rule="evenodd" d="M17.857 13.784A9.167 9.167 0 1 1 26.3 30.057a9.167 9.167 0 0 1-8.443-16.273Zm5.029 2.696a5.5 5.5 0 1 0-1.614 10.881 5.5 5.5 0 0 0 1.614-10.88Z" clip-rule="evenodd"/>
  <path fill="#0E0E0E" d="M32.102 10.083a1.834 1.834 0 0 1 0 3.667h-.019a1.833 1.833 0 0 1 0-3.667h.019Z"/>
  <path fill="#0E0E0E" fill-rule="evenodd" d="M31.167 1.833c6.075 0 11 4.925 11 11v18.334c0 6.075-4.925 11-11 11H12.833c-6.075 0-11-4.925-11-11V12.833c0-6.075 4.925-11 11-11h18.334ZM12.833 5.5A7.333 7.333 0 0 0 5.5 12.833v18.334a7.333 7.333 0 0 0 7.333 7.333h18.334a7.334 7.334 0 0 0 7.333-7.333V12.833A7.333 7.333 0 0 0 31.167 5.5H12.833Z" clip-rule="evenodd"/>
</svg>
