<svg xmlns="http://www.w3.org/2000/svg" width="52" height="52" fill="none" viewBox="0 0 52 52">
  <path fill="#0E0E0E" fill-rule="evenodd" d="M23.833 4.333c10.77 0 19.5 8.73 19.5 19.5 0 4.604-1.6 8.833-4.267 12.169l7.966 7.966.148.165a2.166 2.166 0 0 1-3.047 3.047l-.165-.148-7.966-7.966a19.412 19.412 0 0 1-12.169 4.267c-10.77 0-19.5-8.73-19.5-19.5s8.73-19.5 19.5-19.5Zm0 4.334c-8.376 0-15.166 6.79-15.166 15.166C8.667 32.21 15.457 39 23.833 39 32.21 39 39 32.21 39 23.833c0-8.376-6.79-15.166-15.167-15.166Z" clip-rule="evenodd"/>
</svg>
