<svg xmlns="http://www.w3.org/2000/svg" width="44" height="44" fill="none" viewBox="0 0 44 44">
  <path fill="#0E0E0E" d="M26.204 24.37a1.834 1.834 0 0 1 2.593 2.593l-7.334 7.333a1.834 1.834 0 0 1-2.593 0l-3.666-3.666a1.833 1.833 0 1 1 2.593-2.593l2.37 2.37 6.037-6.037Z"/>
  <path fill="#0E0E0E" fill-rule="evenodd" d="M29.333 1.833c1.013 0 1.834.821 1.834 1.834V5.5h3.666a5.5 5.5 0 0 1 5.5 5.5v25.667a5.5 5.5 0 0 1-5.5 5.5H9.167a5.5 5.5 0 0 1-5.5-5.5V11a5.5 5.5 0 0 1 5.5-5.5h3.666V3.667a1.834 1.834 0 0 1 3.667 0V5.5h11V3.667c0-1.012.82-1.834 1.833-1.834Zm-22 34.834c0 1.012.822 1.833 1.834 1.833h25.666c1.013 0 1.834-.82 1.834-1.833v-16.5H7.333v16.5Zm1.834-27.5c-1.013 0-1.834.82-1.834 1.833v5.5h29.334V11a1.834 1.834 0 0 0-1.834-1.833h-3.666V11a1.834 1.834 0 0 1-3.667 0V9.167h-11V11a1.833 1.833 0 0 1-3.667 0V9.167H9.167Z" clip-rule="evenodd"/>
</svg>
