<svg width="180" height="95" viewBox="0 0 180 95" fill="none" xmlns="http://www.w3.org/2000/svg">
<g filter="url(#filter0_d_1626_3188)">
<g filter="url(#filter1_d_1626_3188)">
<path d="M156.455 34.9997L162.272 14.5931L143 23.813L151.818 26.9375L156.455 34.9997Z" fill="#F76702"/>
<path d="M162.054 14.1451L142.782 23.3648L141.701 23.8823L142.83 24.2811L151.474 27.3441L156.019 35.2461L156.612 36.2789L156.939 35.1346L162.756 14.7282L163.059 13.6646L162.054 14.1451Z" stroke="#F5FAFF"/>
</g>
<rect x="-1" y="1" width="125" height="38" rx="7" transform="matrix(-1 0 0 1 141 35)" fill="#F76702"/>
<rect x="-1" y="1" width="125" height="38" rx="7" transform="matrix(-1 0 0 1 141 35)" stroke="#FFECD0" stroke-width="2"/>
<path d="M42.9432 53.1477H41.1705C41.1023 52.7689 40.9754 52.4356 40.7898 52.1477C40.6042 51.8598 40.3769 51.6155 40.108 51.4148C39.839 51.214 39.5379 51.0625 39.2045 50.9602C38.875 50.858 38.5246 50.8068 38.1534 50.8068C37.483 50.8068 36.8826 50.9754 36.3523 51.3125C35.8258 51.6496 35.4091 52.1439 35.1023 52.7955C34.7992 53.447 34.6477 54.2424 34.6477 55.1818C34.6477 56.1288 34.7992 56.928 35.1023 57.5795C35.4091 58.2311 35.8277 58.7235 36.358 59.0568C36.8883 59.3902 37.4848 59.5568 38.1477 59.5568C38.5152 59.5568 38.8636 59.5076 39.1932 59.4091C39.5265 59.3068 39.8277 59.1572 40.0966 58.9602C40.3655 58.7633 40.5928 58.5227 40.7784 58.2386C40.9678 57.9508 41.0985 57.6212 41.1705 57.25L42.9432 57.2557C42.8485 57.8277 42.6648 58.3542 42.392 58.8352C42.1231 59.3125 41.7765 59.7254 41.3523 60.0739C40.9318 60.4186 40.4508 60.6856 39.9091 60.875C39.3674 61.0644 38.7765 61.1591 38.1364 61.1591C37.1288 61.1591 36.2311 60.9205 35.4432 60.4432C34.6553 59.9621 34.0341 59.2746 33.5795 58.3807C33.1288 57.4867 32.9034 56.4205 32.9034 55.1818C32.9034 53.9394 33.1307 52.8731 33.5852 51.983C34.0398 51.089 34.661 50.4034 35.4489 49.9261C36.2367 49.4451 37.1326 49.2045 38.1364 49.2045C38.7538 49.2045 39.3295 49.2936 39.8636 49.4716C40.4015 49.6458 40.8845 49.9034 41.3125 50.2443C41.7405 50.5814 42.0947 50.9943 42.375 51.483C42.6553 51.9678 42.8447 52.5227 42.9432 53.1477ZM48.5838 61.1761C47.7656 61.1761 47.0516 60.9886 46.4418 60.6136C45.8319 60.2386 45.3584 59.714 45.0213 59.0398C44.6842 58.3655 44.5156 57.5777 44.5156 56.6761C44.5156 55.7708 44.6842 54.9792 45.0213 54.3011C45.3584 53.6231 45.8319 53.0966 46.4418 52.7216C47.0516 52.3466 47.7656 52.1591 48.5838 52.1591C49.402 52.1591 50.116 52.3466 50.7259 52.7216C51.3357 53.0966 51.8092 53.6231 52.1463 54.3011C52.4834 54.9792 52.652 55.7708 52.652 56.6761C52.652 57.5777 52.4834 58.3655 52.1463 59.0398C51.8092 59.714 51.3357 60.2386 50.7259 60.6136C50.116 60.9886 49.402 61.1761 48.5838 61.1761ZM48.5895 59.75C49.1198 59.75 49.5592 59.6098 49.9077 59.3295C50.2562 59.0492 50.5137 58.6761 50.6804 58.2102C50.8509 57.7443 50.9361 57.2311 50.9361 56.6705C50.9361 56.1136 50.8509 55.6023 50.6804 55.1364C50.5137 54.6667 50.2562 54.2898 49.9077 54.0057C49.5592 53.7216 49.1198 53.5795 48.5895 53.5795C48.0554 53.5795 47.6122 53.7216 47.2599 54.0057C46.9115 54.2898 46.652 54.6667 46.4815 55.1364C46.3149 55.6023 46.2315 56.1136 46.2315 56.6705C46.2315 57.2311 46.3149 57.7443 46.4815 58.2102C46.652 58.6761 46.9115 59.0492 47.2599 59.3295C47.6122 59.6098 48.0554 59.75 48.5895 59.75ZM56.2472 49.3636V61H54.5483V49.3636H56.2472ZM60.2315 49.3636V61H58.5327V49.3636H60.2315ZM65.0568 61.1932C64.5038 61.1932 64.0038 61.0909 63.5568 60.8864C63.1098 60.678 62.7557 60.3769 62.4943 59.983C62.2367 59.589 62.108 59.1061 62.108 58.5341C62.108 58.0417 62.2027 57.6364 62.392 57.3182C62.5814 57 62.8371 56.7481 63.1591 56.5625C63.4811 56.3769 63.8409 56.2367 64.2386 56.142C64.6364 56.0473 65.0417 55.9754 65.4545 55.9261C65.9773 55.8655 66.4015 55.8163 66.7273 55.7784C67.053 55.7367 67.2898 55.6705 67.4375 55.5795C67.5852 55.4886 67.6591 55.3409 67.6591 55.1364V55.0966C67.6591 54.6004 67.5189 54.2159 67.2386 53.9432C66.9621 53.6705 66.5492 53.5341 66 53.5341C65.428 53.5341 64.9773 53.661 64.6477 53.9148C64.322 54.1648 64.0966 54.4432 63.9716 54.75L62.375 54.3864C62.5644 53.8561 62.8409 53.428 63.2045 53.1023C63.572 52.7727 63.9943 52.5341 64.4716 52.3864C64.9489 52.2348 65.4508 52.1591 65.9773 52.1591C66.3258 52.1591 66.6951 52.2008 67.0852 52.2841C67.4792 52.3636 67.8466 52.5114 68.1875 52.7273C68.5322 52.9432 68.8144 53.2519 69.0341 53.6534C69.2538 54.0511 69.3636 54.5682 69.3636 55.2045V61H67.7045V59.8068H67.6364C67.5265 60.0265 67.3617 60.2424 67.142 60.4545C66.9223 60.6667 66.6402 60.8428 66.2955 60.983C65.9508 61.1231 65.5379 61.1932 65.0568 61.1932ZM65.4261 59.8295C65.8958 59.8295 66.2973 59.7367 66.6307 59.5511C66.9678 59.3655 67.2235 59.1231 67.3977 58.8239C67.5758 58.5208 67.6648 58.197 67.6648 57.8523V56.7273C67.6042 56.7879 67.4867 56.8447 67.3125 56.8977C67.142 56.947 66.947 56.9905 66.7273 57.0284C66.5076 57.0625 66.2936 57.0947 66.0852 57.125C65.8769 57.1515 65.7027 57.1742 65.5625 57.1932C65.233 57.2348 64.9318 57.3049 64.6591 57.4034C64.3902 57.5019 64.1742 57.6439 64.0114 57.8295C63.8523 58.0114 63.7727 58.2538 63.7727 58.5568C63.7727 58.9773 63.928 59.2955 64.2386 59.5114C64.5492 59.7235 64.9451 59.8295 65.4261 59.8295ZM71.7628 61V49.3636H73.4616V53.6875H73.5639C73.6624 53.5057 73.8045 53.2955 73.9901 53.0568C74.1757 52.8182 74.4332 52.6098 74.7628 52.4318C75.0923 52.25 75.5279 52.1591 76.0696 52.1591C76.7741 52.1591 77.4029 52.3371 77.956 52.6932C78.509 53.0492 78.9427 53.5625 79.2571 54.233C79.5753 54.9034 79.7344 55.7102 79.7344 56.6534C79.7344 57.5966 79.5772 58.4053 79.2628 59.0795C78.9484 59.75 78.5166 60.267 77.9673 60.6307C77.4181 60.9905 76.7912 61.1705 76.0866 61.1705C75.5563 61.1705 75.1226 61.0814 74.7855 60.9034C74.4522 60.7254 74.1908 60.517 74.0014 60.2784C73.812 60.0398 73.6662 59.8277 73.5639 59.642H73.4219V61H71.7628ZM73.4276 56.6364C73.4276 57.25 73.5166 57.7879 73.6946 58.25C73.8726 58.7121 74.1302 59.0739 74.4673 59.3352C74.8045 59.5928 75.2173 59.7216 75.706 59.7216C76.2135 59.7216 76.6378 59.5871 76.9787 59.3182C77.3196 59.0455 77.5772 58.6761 77.7514 58.2102C77.9295 57.7443 78.0185 57.2197 78.0185 56.6364C78.0185 56.0606 77.9313 55.5436 77.7571 55.0852C77.5866 54.6269 77.3291 54.2652 76.9844 54C76.6435 53.7348 76.2173 53.6023 75.706 53.6023C75.2135 53.6023 74.7969 53.7292 74.456 53.983C74.1188 54.2367 73.8632 54.5909 73.6889 55.0455C73.5147 55.5 73.4276 56.0303 73.4276 56.6364ZM85.3182 61.1761C84.5 61.1761 83.786 60.9886 83.1761 60.6136C82.5663 60.2386 82.0928 59.714 81.7557 59.0398C81.4186 58.3655 81.25 57.5777 81.25 56.6761C81.25 55.7708 81.4186 54.9792 81.7557 54.3011C82.0928 53.6231 82.5663 53.0966 83.1761 52.7216C83.786 52.3466 84.5 52.1591 85.3182 52.1591C86.1364 52.1591 86.8504 52.3466 87.4602 52.7216C88.0701 53.0966 88.5436 53.6231 88.8807 54.3011C89.2178 54.9792 89.3864 55.7708 89.3864 56.6761C89.3864 57.5777 89.2178 58.3655 88.8807 59.0398C88.5436 59.714 88.0701 60.2386 87.4602 60.6136C86.8504 60.9886 86.1364 61.1761 85.3182 61.1761ZM85.3239 59.75C85.8542 59.75 86.2936 59.6098 86.642 59.3295C86.9905 59.0492 87.2481 58.6761 87.4148 58.2102C87.5852 57.7443 87.6705 57.2311 87.6705 56.6705C87.6705 56.1136 87.5852 55.6023 87.4148 55.1364C87.2481 54.6667 86.9905 54.2898 86.642 54.0057C86.2936 53.7216 85.8542 53.5795 85.3239 53.5795C84.7898 53.5795 84.3466 53.7216 83.9943 54.0057C83.6458 54.2898 83.3864 54.6667 83.2159 55.1364C83.0492 55.6023 82.9659 56.1136 82.9659 56.6705C82.9659 57.2311 83.0492 57.7443 83.2159 58.2102C83.3864 58.6761 83.6458 59.0492 83.9943 59.3295C84.3466 59.6098 84.7898 59.75 85.3239 59.75ZM91.2827 61V52.2727H92.9247V53.6591H93.0156C93.1747 53.1894 93.455 52.8201 93.8565 52.5511C94.2618 52.2784 94.7202 52.142 95.2315 52.142C95.3376 52.142 95.4626 52.1458 95.6065 52.1534C95.7543 52.161 95.8698 52.1705 95.9531 52.1818V53.8068C95.8849 53.7879 95.7637 53.767 95.5895 53.7443C95.4152 53.7178 95.241 53.7045 95.0668 53.7045C94.6652 53.7045 94.3073 53.7898 93.9929 53.9602C93.6823 54.1269 93.4361 54.3598 93.2543 54.6591C93.0724 54.9545 92.9815 55.2917 92.9815 55.6705V61H91.2827ZM99.8849 61.1932C99.3319 61.1932 98.8319 61.0909 98.3849 60.8864C97.938 60.678 97.5838 60.3769 97.3224 59.983C97.0649 59.589 96.9361 59.1061 96.9361 58.5341C96.9361 58.0417 97.0308 57.6364 97.2202 57.3182C97.4096 57 97.6652 56.7481 97.9872 56.5625C98.3092 56.3769 98.669 56.2367 99.0668 56.142C99.4645 56.0473 99.8698 55.9754 100.283 55.9261C100.805 55.8655 101.23 55.8163 101.555 55.7784C101.881 55.7367 102.118 55.6705 102.266 55.5795C102.413 55.4886 102.487 55.3409 102.487 55.1364V55.0966C102.487 54.6004 102.347 54.2159 102.067 53.9432C101.79 53.6705 101.377 53.5341 100.828 53.5341C100.256 53.5341 99.8054 53.661 99.4759 53.9148C99.1501 54.1648 98.9247 54.4432 98.7997 54.75L97.2031 54.3864C97.3925 53.8561 97.669 53.428 98.0327 53.1023C98.4001 52.7727 98.8224 52.5341 99.2997 52.3864C99.777 52.2348 100.279 52.1591 100.805 52.1591C101.154 52.1591 101.523 52.2008 101.913 52.2841C102.307 52.3636 102.675 52.5114 103.016 52.7273C103.36 52.9432 103.643 53.2519 103.862 53.6534C104.082 54.0511 104.192 54.5682 104.192 55.2045V61H102.533V59.8068H102.464C102.355 60.0265 102.19 60.2424 101.97 60.4545C101.75 60.6667 101.468 60.8428 101.124 60.983C100.779 61.1231 100.366 61.1932 99.8849 61.1932ZM100.254 59.8295C100.724 59.8295 101.125 59.7367 101.459 59.5511C101.796 59.3655 102.052 59.1231 102.226 58.8239C102.404 58.5208 102.493 58.197 102.493 57.8523V56.7273C102.432 56.7879 102.315 56.8447 102.141 56.8977C101.97 56.947 101.775 56.9905 101.555 57.0284C101.336 57.0625 101.122 57.0947 100.913 57.125C100.705 57.1515 100.531 57.1742 100.391 57.1932C100.061 57.2348 99.7599 57.3049 99.4872 57.4034C99.2183 57.5019 99.0024 57.6439 98.8395 57.8295C98.6804 58.0114 98.6009 58.2538 98.6009 58.5568C98.6009 58.9773 98.7562 59.2955 99.0668 59.5114C99.3774 59.7235 99.7732 59.8295 100.254 59.8295ZM110.528 52.2727V53.6364H105.761V52.2727H110.528ZM107.04 50.1818H108.739V58.4375C108.739 58.767 108.788 59.0152 108.886 59.1818C108.985 59.3447 109.112 59.4564 109.267 59.517C109.426 59.5739 109.598 59.6023 109.784 59.6023C109.92 59.6023 110.04 59.5928 110.142 59.5739C110.244 59.5549 110.324 59.5398 110.381 59.5284L110.688 60.9318C110.589 60.9697 110.449 61.0076 110.267 61.0455C110.085 61.0871 109.858 61.1098 109.585 61.1136C109.138 61.1212 108.722 61.0417 108.335 60.875C107.949 60.7083 107.636 60.4508 107.398 60.1023C107.159 59.7538 107.04 59.3163 107.04 58.7898V50.1818ZM115.99 61.1761C115.172 61.1761 114.458 60.9886 113.848 60.6136C113.238 60.2386 112.765 59.714 112.428 59.0398C112.09 58.3655 111.922 57.5777 111.922 56.6761C111.922 55.7708 112.09 54.9792 112.428 54.3011C112.765 53.6231 113.238 53.0966 113.848 52.7216C114.458 52.3466 115.172 52.1591 115.99 52.1591C116.808 52.1591 117.522 52.3466 118.132 52.7216C118.742 53.0966 119.215 53.6231 119.553 54.3011C119.89 54.9792 120.058 55.7708 120.058 56.6761C120.058 57.5777 119.89 58.3655 119.553 59.0398C119.215 59.714 118.742 60.2386 118.132 60.6136C117.522 60.9886 116.808 61.1761 115.99 61.1761ZM115.996 59.75C116.526 59.75 116.965 59.6098 117.314 59.3295C117.662 59.0492 117.92 58.6761 118.087 58.2102C118.257 57.7443 118.342 57.2311 118.342 56.6705C118.342 56.1136 118.257 55.6023 118.087 55.1364C117.92 54.6667 117.662 54.2898 117.314 54.0057C116.965 53.7216 116.526 53.5795 115.996 53.5795C115.462 53.5795 115.018 53.7216 114.666 54.0057C114.318 54.2898 114.058 54.6667 113.888 55.1364C113.721 55.6023 113.638 56.1136 113.638 56.6705C113.638 57.2311 113.721 57.7443 113.888 58.2102C114.058 58.6761 114.318 59.0492 114.666 59.3295C115.018 59.6098 115.462 59.75 115.996 59.75ZM121.955 61V52.2727H123.597V53.6591H123.688C123.847 53.1894 124.127 52.8201 124.528 52.5511C124.934 52.2784 125.392 52.142 125.903 52.142C126.009 52.142 126.134 52.1458 126.278 52.1534C126.426 52.161 126.542 52.1705 126.625 52.1818V53.8068C126.557 53.7879 126.436 53.767 126.261 53.7443C126.087 53.7178 125.913 53.7045 125.739 53.7045C125.337 53.7045 124.979 53.7898 124.665 53.9602C124.354 54.1269 124.108 54.3598 123.926 54.6591C123.744 54.9545 123.653 55.2917 123.653 55.6705V61H121.955Z" fill="white"/>
</g>
<defs>
<filter id="filter0_d_1626_3188" x="0" y="0.736328" width="179.845" height="94.2637" filterUnits="userSpaceOnUse" color-interpolation-filters="sRGB">
<feFlood flood-opacity="0" result="BackgroundImageFix"/>
<feColorMatrix in="SourceAlpha" type="matrix" values="0 0 0 0 0 0 0 0 0 0 0 0 0 0 0 0 0 0 127 0" result="hardAlpha"/>
<feOffset dy="4"/>
<feGaussianBlur stdDeviation="8"/>
<feComposite in2="hardAlpha" operator="out"/>
<feColorMatrix type="matrix" values="0 0 0 0 0.054902 0 0 0 0 0.054902 0 0 0 0 0.054902 0 0 0 0.08 0"/>
<feBlend mode="normal" in2="BackgroundImageFix" result="effect1_dropShadow_1626_3188"/>
<feBlend mode="normal" in="SourceGraphic" in2="effect1_dropShadow_1626_3188" result="shape"/>
</filter>
<filter id="filter1_d_1626_3188" x="138.403" y="11.7363" width="27.4414" height="28.8213" filterUnits="userSpaceOnUse" color-interpolation-filters="sRGB">
<feFlood flood-opacity="0" result="BackgroundImageFix"/>
<feColorMatrix in="SourceAlpha" type="matrix" values="0 0 0 0 0 0 0 0 0 0 0 0 0 0 0 0 0 0 127 0" result="hardAlpha"/>
<feOffset dy="1"/>
<feGaussianBlur stdDeviation="1"/>
<feComposite in2="hardAlpha" operator="out"/>
<feColorMatrix type="matrix" values="0 0 0 0 0 0 0 0 0 0 0 0 0 0 0 0 0 0 0.08 0"/>
<feBlend mode="normal" in2="BackgroundImageFix" result="effect1_dropShadow_1626_3188"/>
<feBlend mode="normal" in="SourceGraphic" in2="effect1_dropShadow_1626_3188" result="shape"/>
</filter>
</defs>
</svg>
