<svg width="100" height="100" viewBox="0 0 100 100" fill="none" xmlns="http://www.w3.org/2000/svg">
<path fill-rule="evenodd" clip-rule="evenodd" d="M94.6785 31.4695C75.9099 66.3694 38.4175 80.5582 3.59528 60.9103C2.43603 60.2561 0.965988 60.6651 0.311743 61.8101C-0.342503 62.9754 0.0664445 64.4474 1.22569 65.1017C38.5504 86.1807 78.8049 71.1536 98.9229 33.7593C99.5526 32.5939 99.1131 31.1217 97.9416 30.4879C96.7701 29.8745 95.3082 30.3041 94.6785 31.4695Z" fill="black"/>
<path d="M32.8988 45.943C36.7758 45.943 39.9187 42.8002 39.9187 38.9232C39.9187 35.0462 36.7758 31.9033 32.8988 31.9033C29.0218 31.9033 25.8789 35.0462 25.8789 38.9232C25.8789 42.8002 29.0218 45.943 32.8988 45.943Z" fill="black"/>
<path d="M61.9608 38.4753C65.762 38.4753 68.8436 35.3938 68.8436 31.5926C68.8436 27.7914 65.762 24.71 61.9608 24.71C58.1596 24.71 55.0781 27.7914 55.0781 31.5926C55.0781 35.3938 58.1596 38.4753 61.9608 38.4753Z" fill="black"/>
</svg>
